<svg xmlns="http://www.w3.org/2000/svg" height="2.5rem" viewBox="0 0 611.57 181.4"><defs><style>.cls-1{fill:#ff4f2a;}.cls-2{fill:#ff1a26;}.cls-3{fill:#ffb833;}.cls-4,.cls-5{fill:#f46f30;}.cls-5{font-size:110px;font-family:Poppins-SemiBold, Poppins;font-weight:600;}</style></defs><title>Logo Small</title><g id="Layer_1" data-name="Layer 1"><path class="cls-1" d="M145,299c16.38-12.8,28,45.82,40.2,63.8C177.16,389.66,150.63,305.09,145,299Z" transform="translate(-127.48 -293.72)"/><rect class="cls-2" x="52.86" y="125.55" width="61.98" height="7.19"/><path class="cls-3" d="M175.86,391.45c-47.67-6,53-64.58,51-30.92C206.4,354.2,169.68,368.2,175.86,391.45Z" transform="translate(-127.48 -293.72)"/><path class="cls-3" d="M197.74,391.45c-36,3.32,18.28-42.3,19.6-19.67-.09,4.11-1.05-1-14.79,4.85C198.16,380.27,197.36,383,197.74,391.45Z" transform="translate(-127.48 -293.72)"/><path class="cls-3" d="M216,391.45c-.3,0,68.52,0,69.27,0C283.87,327.29,213.51,341.89,216,391.45Z" transform="translate(-127.48 -293.72)"/><path class="cls-3" d="M212.28,342.34c-68.94-.27-85.52,60.49-60.15,54C147.5,321.84,313.2,364.13,212.28,342.34Z" transform="translate(-127.48 -293.72)"/><path class="cls-1" d="M209,294.25c26-6.65-14.84,51.63-17.95,70.69.47,4.88-9.17.76-11.46.36C181.62,360.48,208.77,294.89,209,294.25Z" transform="translate(-127.48 -293.72)"/><path class="cls-4" d="M127.48,370.17c0,30.46,37.54,55.14,83.85,55.14l7.29-27.57-7.29-27.57Z" transform="translate(-127.48 -293.72)"/><path class="cls-1" d="M211.33,370.17v55.14c46.31,0,83.85-24.68,83.85-55.14Z" transform="translate(-127.48 -293.72)"/><text x="-127.48" y="-293.72"/></g><g id="Layer_2" data-name="Layer 2"><text class="cls-5" transform="translate(203.2 116.17) scale(0.92 1)">C F R</text><text x="-127.48" y="-293.72"/></g></svg>