<svg xmlns="http://www.w3.org/2000/svg" viewBox="0 0 1224.35 196.24"><defs><style>.cls-1{fill:#ff4f2a;}.cls-2{fill:#ff1a26;}.cls-3{fill:#ffb833;}.cls-4,.cls-5{fill:#f46f30;}.cls-5{font-size:120px;font-family:Garamond-Bold, Garamond;font-weight:700;}.cls-6{letter-spacing:-0.03em;}.cls-7{letter-spacing:-0.01em;}</style></defs><title>Logo</title><g id="Layer_1" data-name="Layer 1"><polygon class="cls-1" points="25.7 7.01 41.06 4.12 86.19 104.07 70.83 106.96 25.7 7.01"/><rect class="cls-2" x="77.37" y="182.98" width="90.7" height="10.53"/><path class="cls-3" d="M142.29,429.51h-16V419c0-26.12,32.31-47.36,72-47.36a106.36,106.36,0,0,1,24,2.7L217,384.24a82.88,82.88,0,0,0-18.69-2.1c-30.89,0-56,16.53-56,36.84Z" transform="translate(-71.48 -287.25)"/><path class="cls-3" d="M174.3,429.51h-16V419c0-14.51,18-26.31,40-26.31a61.64,61.64,0,0,1,6.63.36l-2.63,10.39a36.17,36.17,0,0,0-4-.23c-13.24,0-24,7.09-24,15.79v10.53Z" transform="translate(-71.48 -287.25)"/><path class="cls-3" d="M201,429.51H302.35V419c0-21.9-15.65-41.4-40-53.93H251.67C234.22,369.81,201,385.58,201,419Z" transform="translate(-71.48 -287.25)"/><path class="cls-3" d="M195.59,357.64c-57.37,0-104,30.69-104,68.42v10.52h16V426.06c0-31.92,39.5-57.89,88-57.89a128.85,128.85,0,0,1,32.06,4h16v-6.76A148.39,148.39,0,0,0,195.59,357.64Z" transform="translate(-71.48 -287.25)"/><polygon class="cls-1" points="119.36 0 134.82 2.63 91.6 107.03 76.14 104.4 119.36 0"/><path class="cls-4" d="M71.48,398.37c0,44.57,55,80.7,122.72,80.7l10.67-40.35L194.2,398.37Z" transform="translate(-71.48 -287.25)"/><path class="cls-1" d="M194.2,398.37v80.7c67.78,0,122.72-36.13,122.72-80.7Z" transform="translate(-71.48 -287.25)"/><text x="-71.48" y="-287.25"/></g><g id="Layer_2" data-name="Layer 2"><text class="cls-5" transform="translate(256.66 151.6) scale(0.79 1)">Cambodia <tspan class="cls-6" x="556.29" y="0">F</tspan><tspan x="626.72" y="0">ood </tspan><tspan class="cls-7" x="848.03" y="0">R</tspan><tspan x="930.59" y="0">eview</tspan></text><text x="-71.48" y="-287.25"/></g></svg>