<svg xmlns="http://www.w3.org/2000/svg" viewBox="0 0 1175.16 155.75"><defs><style>.cls-1{fill:#ff4f2a;}.cls-2{fill:#ff1a26;}.cls-3{fill:#ffb833;}.cls-4,.cls-5{fill:#f46f30;}.cls-5{font-size:106.09px;font-family:Garamond-Bold, Garamond;font-weight:700;}.cls-6{letter-spacing:-0.03em;}.cls-7{letter-spacing:-0.01em;}</style></defs><title>Logo3</title><g id="Layer_1" data-name="Layer 1"><polygon class="cls-1" points="17.56 4.79 28.05 2.82 58.89 71.11 48.4 73.08 17.56 4.79"/><rect class="cls-2" x="52.86" y="125.02" width="61.98" height="7.19"/><path class="cls-3" d="M175.86,391.45H164.93v-7.19c0-17.85,22.07-32.37,49.21-32.37a72.8,72.8,0,0,1,16.41,1.85l-3.64,6.78a56.61,56.61,0,0,0-12.77-1.43c-21.11,0-38.28,11.29-38.28,25.17Z" transform="translate(-127.48 -294.25)"/><path class="cls-3" d="M197.74,391.45H186.8v-7.19c0-9.92,12.26-18,27.34-18a40.58,40.58,0,0,1,4.53.25l-1.8,7.09a25.25,25.25,0,0,0-2.73-.15c-9,0-16.4,4.84-16.4,10.79v7.19Z" transform="translate(-127.48 -294.25)"/><path class="cls-3" d="M216,391.45h69.27v-7.19c0-15-10.7-28.29-27.34-36.85H250.6c-11.92,3.25-34.64,14-34.64,36.85Z" transform="translate(-127.48 -294.25)"/><path class="cls-3" d="M212.28,342.34c-39.2,0-71.09,21-71.09,46.75v7.2h10.94v-7.2c0-21.81,27-39.55,60.15-39.55a88,88,0,0,1,21.91,2.71h10.9v-4.62A101.53,101.53,0,0,0,212.28,342.34Z" transform="translate(-127.48 -294.25)"/><polygon class="cls-1" points="81.55 0 92.12 1.8 62.59 73.13 52.03 71.33 81.55 0"/><path class="cls-4" d="M127.48,370.17c0,30.46,37.54,55.14,83.85,55.14l7.29-27.57-7.29-27.57Z" transform="translate(-127.48 -294.25)"/><path class="cls-1" d="M211.33,370.17v55.14c46.31,0,83.85-24.68,83.85-55.14Z" transform="translate(-127.48 -294.25)"/><text x="-127.48" y="-294.25"/></g><g id="Layer_2" data-name="Layer 2"><text class="cls-5" transform="translate(186.2 116.28) scale(0.92 1)">Cambodia <tspan class="cls-6" x="491.81" y="0">F</tspan><tspan x="554.08" y="0">ood </tspan><tspan class="cls-7" x="749.73" y="0">R</tspan><tspan x="822.72" y="0">eview</tspan></text><text x="-127.48" y="-294.25"/></g></svg>