<svg xmlns="http://www.w3.org/2000/svg" viewBox="0 0 1168.81 174.75"><defs><style>.cls-1{fill:#ff4f2a;}.cls-2{fill:#ff1a26;}.cls-3{fill:#ffb833;}.cls-4,.cls-5{fill:#f46f30;}.cls-5{font-size:119.03px;font-family:Garamond-Bold, Garamond;font-weight:700;}.cls-6{letter-spacing:-0.03em;}.cls-7{letter-spacing:-0.01em;}.cls-8{letter-spacing:0em;}</style></defs><title>logo2</title><g id="Layer_1" data-name="Layer 1"><polygon class="cls-1" points="19.7 5.37 31.48 3.16 66.07 79.78 54.3 81.99 19.7 5.37"/><rect class="cls-2" x="59.31" y="140.27" width="69.54" height="8.07"/><path class="cls-3" d="M181.76,403.31H169.49v-8.07c0-20,24.77-36.31,55.22-36.31A81.14,81.14,0,0,1,243.13,361L239,368.61A63.33,63.33,0,0,0,224.71,367c-23.68,0-43,12.67-43,28.24Z" transform="translate(-127.48 -294.25)"/><path class="cls-3" d="M206.31,403.31H194v-8.07c0-11.13,13.77-20.18,30.68-20.18a46,46,0,0,1,5.09.29l-2,7.95a29,29,0,0,0-3.07-.17c-10.15,0-18.4,5.43-18.4,12.11v8.07Z" transform="translate(-127.48 -294.25)"/><path class="cls-3" d="M226.76,403.31h77.71v-8.07c0-16.8-12-31.74-30.67-41.34h-8.18c-13.38,3.64-38.86,15.73-38.86,41.34Z" transform="translate(-127.48 -294.25)"/><path class="cls-3" d="M222.63,348.21c-44,0-79.77,23.53-79.77,52.45v8.07h12.28v-8.07c0-24.47,30.27-44.38,67.49-44.38a98.5,98.5,0,0,1,24.58,3.05h12.23v-5.19A114,114,0,0,0,222.63,348.21Z" transform="translate(-127.48 -294.25)"/><polygon class="cls-1" points="91.5 0 103.36 2.02 70.22 82.05 58.37 80.03 91.5 0"/><path class="cls-4" d="M127.48,379.44c0,34.16,42.12,61.86,94.08,61.86l8.18-30.93-8.18-30.93Z" transform="translate(-127.48 -294.25)"/><path class="cls-1" d="M221.56,379.44V441.3c52,0,94.08-27.7,94.08-61.86Z" transform="translate(-127.48 -294.25)"/><text x="-127.48" y="-294.25"/></g><g id="Layer_2" data-name="Layer 2"><text class="cls-5" transform="translate(208.92 130.46) scale(0.79 1)">Cambodia <tspan class="cls-6" x="551.81" y="0">F</tspan><tspan x="621.67" y="0">ood </tspan><tspan class="cls-7" x="841.19" y="0">R</tspan><tspan class="cls-8" x="923.09" y="0">eview</tspan></text><text x="-127.48" y="-294.25"/></g></svg>