<svg xmlns="http://www.w3.org/2000/svg" height="2.5rem" v-if="$vuetify.breakpoint.mdAndUp" viewBox="0 0 1221.69 209.98"><defs><style>.cls-1{fill:#ff4f2a;}.cls-2{fill:#ff1a26;}.cls-3{fill:#ffb833;}.cls-4,.cls-5{fill:#f46f30;}.cls-5{font-size:91.21px;font-family:Poppins-SemiBold, Poppins;font-weight:600;}</style></defs><title>Logo6</title><g id="Layer_1" data-name="Layer 1"><path class="cls-1" d="M139.88,256.84c16.06-15.13,32,68.22,45.72,95.17C179,388,146,266.16,139.88,256.84Z" transform="translate(-108.16 -255.02)"/><rect class="cls-2" x="72.18" y="164.25" width="61.98" height="7.19"/><path class="cls-3" d="M140.05,390c-1.16-.74,16.33-65.49,36.18-63,17.78,2.22,25.5,56.95,24.72,57.29s-8.13-43.83-24.12-45.83C158.51,336.14,141.14,390.68,140.05,390Z" transform="translate(-108.16 -255.02)"/><path class="cls-3" d="M184.83,394.51c-48,2.51,40.66-72.94,44.75-39.48C208.27,352.44,174.62,372.73,184.83,394.51Z" transform="translate(-108.16 -255.02)"/><path class="cls-3" d="M197.74,391.45c-36,3.32,18.28-42.3,19.6-19.67-.09,4.11-1.05-1-14.79,4.85C198.16,380.27,197.36,383,197.74,391.45Z" transform="translate(-108.16 -255.02)"/><path class="cls-3" d="M216,391.45c-.3,0,68.52,0,69.27,0C283.87,327.29,213.51,341.89,216,391.45Z" transform="translate(-108.16 -255.02)"/><path class="cls-3" d="M205.65,337.11C138,350.18,133.45,413,157.07,401.67,138.12,329.53,308.87,339,205.65,337.11Z" transform="translate(-108.16 -255.02)"/><path class="cls-1" d="M108.16,276.36c4.09-29.36,50.33,53.45,70,71,5.58,3.3-3.18,9.16-4.64,11Z" transform="translate(-108.16 -255.02)"/><path class="cls-4" d="M127.48,370.17c0,30.46,37.54,55.14,83.85,55.14l7.29-27.57-7.29-27.57Z" transform="translate(-108.16 -255.02)"/><path class="cls-1" d="M211.33,370.17v55.14c46.31,0,83.85-24.68,83.85-55.14Z" transform="translate(-108.16 -255.02)"/><text x="-108.16" y="-255.02"/><path class="cls-3" d="M257,218" transform="translate(-108.16 -255.02)"/></g><g id="Layer_2" data-name="Layer 2"><text class="cls-5" transform="translate(216.52 155.89) scale(0.92 1)">Cambodia Food Review</text><text x="-108.16" y="-255.02"/></g></svg>